<?xml version="1.0" encoding="UTF-8"?>
<svg id="Layer_1" data-name="Layer 1" xmlns="http://www.w3.org/2000/svg" version="1.1" viewBox="0 0 512 512">
  <defs>
    <style>
      .cls-1 {
        fill: #1a71a9;
        stroke-width: 0px;
      }
    </style>
  </defs>
  <path class="cls-1" d="M459.4,151.7c.3,4.5.3,9.1.3,13.6,0,138.7-105.6,298.6-298.6,298.6S46.4,446.7,0,416.8c8.4,1,16.6,1.3,25.3,1.3,49.1,0,94.2-16.6,130.3-44.8-46.1-1-84.8-31.2-98.1-72.8,6.5,1,13,1.6,19.8,1.6s18.8-1.3,27.6-3.6c-48.1-9.7-84.1-52-84.1-103v-1.3c14,7.8,30.2,12.7,47.4,13.3-28.3-18.8-46.8-51-46.8-87.4s5.2-37.4,14.3-53c51.7,63.7,129.3,105.3,216.4,109.8-1.6-7.8-2.6-15.9-2.6-24,0-57.8,46.8-104.9,104.9-104.9s57.5,12.7,76.7,33.1c23.7-4.5,46.5-13.3,66.6-25.3-7.8,24.4-24.4,44.8-46.1,57.8,21.1-2.3,41.6-8.1,60.4-16.2-14.3,20.8-32.2,39.3-52.6,54.3h0Z"/>
</svg>